<svg xmlns="http://www.w3.org/2000/svg" viewBox="0 0 100 120">
  <!-- Shield - split half purple / half white -->
  <path d="M50 4 L90 18 L90 62 C90 88 50 116 50 116 C50 116 10 88 10 62 L10 18 Z" fill="#6a0dad" stroke="#ffffff" stroke-width="3.5"/>
  <path d="M50 4 L50 116 C50 116 10 88 10 62 L10 18 Z" fill="#4b0082"/>
  <!-- Lily (Fleur de Lys) -->
  <path d="M50 28 C50 28 44 34 44 40 C44 44 47 46 50 46 C53 46 56 44 56 40 C56 34 50 28 50 28Z" fill="#ffffff"/>
  <path d="M50 46 L46 56 L54 56 Z" fill="#ffffff"/>
  <rect x="44" y="55" width="12" height="3" rx="1" fill="#ffffff"/>
  <!-- Club initials -->
  <text x="50" y="80" font-family="'Impact', 'Arial Black', sans-serif" font-size="14" font-weight="900" fill="#ffffff" text-anchor="middle">LFC</text>
  <text x="50" y="95" font-family="'Arial', sans-serif" font-size="6.5" font-weight="700" fill="#dda0dd" text-anchor="middle" letter-spacing="0.5">LILAS FC</text>
</svg>
