<svg xmlns="http://www.w3.org/2000/svg" viewBox="0 0 100 120">
  <!-- Shield -->
  <path d="M50 4 L90 18 L90 62 C90 88 50 116 50 116 C50 116 10 88 10 62 L10 18 Z" fill="#006400" stroke="#ffd700" stroke-width="3.5"/>
  <path d="M50 12 L84 24 L84 62 C84 84 50 108 50 108 C50 108 16 84 16 62 L16 24 Z" fill="#004d00"/>
  <!-- Running figure silhouette -->
  <circle cx="50" cy="38" r="7" fill="#ffd700"/>
  <path d="M43 48 Q50 62 44 72 M57 48 Q50 62 56 72 M50 48 L50 62" stroke="#ffd700" stroke-width="3" fill="none" stroke-linecap="round"/>
  <!-- Club initials -->
  <text x="50" y="92" font-family="'Impact', 'Arial Black', sans-serif" font-size="8.5" font-weight="900" fill="#ffd700" text-anchor="middle" letter-spacing="-0.5">SEL</text>
  <text x="50" y="103" font-family="'Arial', sans-serif" font-size="5.5" font-weight="700" fill="#90ee90" text-anchor="middle" letter-spacing="0.3">SP. ETHIQUE LIVRY</text>
</svg>
